<?xml version="1.0" standalone="yes"?>
<svg xmlns="http://www.w3.org/2000/svg" width="442" height="315">
<path style="fill:#341f22; stroke:none;" d="M0 0L0 116C26.931 110.444 53.008 112.618 80 114L73 103L73 102L87 101L85 113L105 112C105.651 120.357 118.733 116.757 123.271 112.436C130.136 105.898 126.184 100.633 123 94L103 102C101.184 87.632 100.569 69.6748 113.04 59.5285C120.35 53.5816 126.409 54.1604 135 52.7407C149.405 50.3603 174.455 42.9017 186.451 56.419C190.568 61.0587 189.399 72.1969 189 78C204.661 89.2499 203.004 101.103 208 118C213.18 115.156 214.656 108.362 220 104.88C231.36 97.4797 240.813 105.088 239.286 119C238.059 130.18 215.548 151.981 240 152L240 153L235 156L235 157C238.695 161.613 245.45 171.903 241 177L244 180L244 176C249.162 181.468 246.995 195.558 247 203L246 203L235 166L234 166C234.099 177.915 240.455 189.208 239.856 201C238.812 221.58 220.1 229.805 205 238L197.218 229.945L196.382 220.108L179.867 203.904L156 209.036L138 207C139.142 201.525 133.939 196.031 135.697 191.191C137.206 187.037 149.517 191.351 153 192C157.889 176.164 139.918 188.986 132.043 185.65C127.16 183.582 123.865 176.212 121 172L123 192L119 190C113.978 195.755 106.617 200.814 106 209C98.3422 208.039 96.8529 213.748 90.9815 216.822C86.7992 219.011 82.2123 219.46 78 222L78 223L98 231C92.7753 237.273 79.81 234.934 72 237L72 238L87 243C81.4482 254.008 64.6015 240.895 59 252L75.3735 253.307L71 264C64.0494 263.999 46.0973 257.412 48 269L38 272L57 234C51.8273 232.817 47.8878 233.503 48 227L47 227L46 230C45.1941 217.462 34.7451 221.418 26.108 215.648C19.7424 211.396 17.1362 201.053 11.9066 195.318C7.27574 190.239 3.57764 192.83 1 185L0 185C0 199.826 -2.06563 216.369 0.324846 231C3.97708 253.353 17.2105 279.56 30 298L31 298C37.9126 294.85 34.793 301.948 35 306L37 306L38 303L46 309L0 309L0 315L442 315L442 260C442 245.933 443.681 235.829 431 227L430 237L423 237C421.866 229.738 415.186 229.414 409 228L410 225L405 223L404 223L405 226L391 217L391 215L407 218C405.042 203.856 395.83 209.649 386 209L386 208L391 207L388 202L387 202C379.308 203.649 375.871 196.565 376 190C363.032 194.862 361.38 188.273 349.957 184.964C338.514 181.649 325.872 180.304 314 178L314 177L317 176L317 175C307.382 171.43 300.371 163.286 290 160.498C282.841 158.574 276.614 164.355 271 158L275 158L275 156L236 147L236 146L270 145.893L307 155C302.571 149.924 295.568 148.14 289 148L290 145C296.037 146.767 300.196 143.173 306 143.561C313.749 144.079 321.576 148.846 329 150.96C336.552 153.11 344.515 153.167 351.83 156.559C371.124 165.505 385.211 189.021 401.438 202.201C414.085 212.473 433.189 219.403 441 234L442 234L442 205L437 205L437 204L442 204L442 0L432.028 1.60339L427.852 11.7816L402 14L402 13L404 12L399 10L403 0C395.235 0 384.589 -1.92261 377.152 0.317902C370.605 2.29041 377.416 9.93655 381 11C375.523 17.3723 369.634 17.5136 368 27L372 28L375 38L375 39C363.926 44.3966 353.085 44.5273 341 43C344.82 32.7998 344.931 21.6753 343.576 11C343.253 8.44788 344.189 2.86597 342.168 1.02777C338.676 -2.14941 326.528 0 322 0L267 0C267 6.94537 263.374 27.5021 272 29C269.69 33.3381 266.779 44.6254 263.566 47.3958C260.671 49.8928 255.524 48.4924 252 48.7538C241.642 49.5225 221.347 53.8948 216 42L242.721 39.9722L245.324 29L246 0L0 0z"/>
<path style="fill:#78332f; stroke:none;" d="M246 0C244.78 9.64999 245.99 19.249 245.181 29C244.885 32.566 245.864 36.803 242.707 39.3966C237.678 43.5273 224.241 41 218 41L218 42C229.075 42 239.979 41.517 251 41.0394C253.907 40.9134 260.115 40.2107 261.387 43.804C262.668 47.4198 254.849 47.1778 253 47.4244C243.161 48.7363 232.828 48.7756 223 48L223 49L252 48.9198L263.566 47.9722L272 29C263.441 26.2967 267 7.38541 267 0L246 0M343 0C343.997 14.6929 345.039 28.6261 341 43C352.076 45.0563 365.325 45.3432 375 39L375 38L372 28L368 27L381 11C376.301 8.68338 374.547 5.17963 375 0L343 0M403 0L399 10L402 13L402 14L429.397 11.2569L432 0L403 0M17 3L16 6C18.5655 5.44931 18.8602 4.8602 17 3M18 29L25 28L18 29M296 27L297 31C291.707 31.8734 285.118 29.2989 284 36L285 36C287.204 32.3296 289.25 33.6261 291 37L285 37L285 38C288.786 39.3607 290.188 41.0682 291 45L292 45L294 35L295 35L295 39C303.321 38.5096 323.238 40.8223 324 30C335.018 35.2036 324.77 44.2374 324 53C314.859 51.8448 298.418 55.5231 292 48L291 48L291 54L297 55L296 60C285.886 57.9129 288.888 67.4364 287.242 74C286.27 77.8734 283.382 82.6452 286.858 86.2577C289.563 89.0689 295.493 87.9836 299 88.0008C308.475 88.0471 317.46 88 327 88L327 87C320.31 86.9454 313.694 86.9974 307 87C302.198 87.0018 292.318 88.8613 288.515 85.3966C285.863 82.9806 287.9 62.8954 291.318 61.3526C293.891 60.1911 298.222 61.9256 301 61.9846C308.367 62.1409 320.41 58.0143 326.678 63.5887C329.508 66.1052 328.095 69.7468 328.758 73C329.742 77.8204 331.25 81.7316 328 86L328 87C337.214 83.9322 329.578 61.9637 324 58L323 58L317 60L317 57C319.664 56.9906 323.325 57.47 325.397 55.3966C328.397 52.3936 333.245 34.0389 329.682 31.0324C324.234 26.4356 309.178 29.4111 302 28L302 29L309 37L296 27M41 28L45 31L41 28M68 28C68.6974 32.5036 70.6073 34.7523 75 36L79 29L68 28z"/>
<path style="fill:#965658; stroke:none;" d="M324 30C322.482 40.8319 303.404 37.9843 295 39L295 35L294 35C283.141 56.7835 310.907 51.9666 324 53C325.201 44.9847 336.342 33.5055 324 30z"/>
<path style="fill:#78332f; stroke:none;" d="M5 32L10 33L5 32z"/>
<path style="fill:#965658; stroke:none;" d="M285 37L291 37C289.549 32.2269 285.887 31.6993 285 37z"/>
<path style="fill:#78332f; stroke:none;" d="M47 40L52 49L54 49L64 34C57.8124 32.8041 51.899 36.5344 47 40z"/>
<path style="fill:#9b8b96; stroke:none;" d="M326.836 34.341C323.566 34.3206 320.302 37.8015 317 38.517C310.313 39.9659 303.574 38.502 297.044 41.3403C293.917 42.6992 289.852 48.2916 295.229 49.8974C300.205 51.3835 317.876 49.9328 321.91 46.6821C323.391 45.4894 333.212 34.3809 326.836 34.341M286 34L286 36L289 36L289 34L286 34z"/>
<path style="fill:#341f22; stroke:none;" d="M313 34L313 35L322 35L313 34z"/>
<path style="fill:#c9a6ad; stroke:none;" d="M329 36C324.537 35.8261 321.355 38.9025 317 39.7863C311.527 40.8969 306.454 39.8788 301 41.787C298.993 42.4893 293.332 43.664 293.921 46.787C294.55 50.1237 300.955 47.649 303 47.6335C313.934 47.5505 322.92 46.2864 329 36z"/>
<path style="fill:#78332f; stroke:none;" d="M97 36C94.2621 41.9704 91.2785 44.1935 93 51C99.2533 47.7615 103.435 40.9658 97 36z"/>
<path style="fill:#965658; stroke:none;" d="M217 42C221.404 52.7464 239.699 48.368 249 47.9606C251.887 47.8342 258.972 48.0531 261.149 45.9769C266.698 40.6839 248.795 41.0737 247 41.2855C242.959 41.7623 239.074 41.9998 235 42L217 42z"/>
<path style="fill:#78332f; stroke:none;" d="M216 42L218 45L216 42z"/>
<path style="fill:#9b8b96; stroke:none;" d="M224 47L241 47C235.565 44.4962 228.617 42.2849 224 47z"/>
<path style="fill:#78332f; stroke:none;" d="M406 44L407 45L406 44M218.333 45.6667L218.667 46.3333L218.333 45.6667M76 46L68 48C70.2746 55.7951 72.0181 61.3302 61 63L65 74L67 74L68 73L66 66L75.7762 63.8125L91 79C89.3538 70.5114 86.3616 60.7292 91 53L79 58L76 46M219.667 47.3333L220.333 47.6667L219.667 47.3333M103 102L123 94C125.076 101.042 129.674 104.708 123.271 111.697C119.149 116.195 106.245 119.781 105 112L85 113L87 101L73 102L73 103L80 114C53.7421 111.386 28.275 111.679 2 115L2 116L77 114.896L103 115L102 120L97 120L105 127L105 123L117 131L120 131L125 127C127.598 115.768 131.518 103.273 128 92C108.011 92.8605 110.055 74.6397 111 61C115.774 59.9766 119.431 56.9671 124 55.5594C140.686 50.4179 166.256 47.6356 181.941 57.1389C188.369 61.0339 183.103 69.8478 185.424 75.9846C187.935 82.6222 196.067 83.871 199.312 90.0401C202.187 95.5059 203.524 104.855 204.522 111C204.921 113.463 204.084 117.294 206.404 118.968C208.035 120.144 210.531 119.927 211.836 118.396C217.596 111.638 222.094 106.284 229 100L230 101L227 105C246.665 113.082 234.131 143.476 215 136L213 143C208.037 143.828 204.329 154.207 203 159L193 159C191.966 165.264 195.371 172.129 193.958 177.999C191.965 186.277 175.557 192.591 168 193L160 172L153 174L158 159C147.252 153.27 135.635 141.45 122 151L119 143L113 130L86 139.545L54 138L54 145L53 145L53 138C45.6097 137.33 42.0326 132.441 35.8302 129.302C28.9352 125.814 15.7083 122.204 8 123L29.3843 141.17L51 178L42 165L39 166L35 158L24 160C21.6307 152.194 6.96237 151.677 0 150C0 160.393 -4.16545 182.919 3.00926 191.397C5.03436 193.79 8.90459 192.929 11.2145 195.318C16.6409 200.931 18.9882 211.182 25.2238 215.648C34.19 222.07 43.4602 217.413 46 230L47 227L48 227C47.484 233.864 51.4105 233.355 57 234C50.9749 247.191 39.9951 256.682 38 272L48 269C47.6409 257.89 63.6869 264 71 264L76.0795 253.303L59 252C65.5751 243.402 83.8236 253.464 87 243L72 238L72 237C78.6464 235.875 94.7079 236.97 98 231L78 223L78 222L91.946 216.822L106 209L119 190L123 192L121 172C123.144 176.511 126.964 184.49 132.043 186.168C140.401 188.929 155.959 176.72 153 192C149.668 191.198 137.35 186.694 135.618 190.333C133.344 195.113 138.631 201.714 138 207L156 209.306L179.867 204.492L186.278 212.775L195.382 219.225L196.757 229.945L205 238C210.256 235.758 215.945 234.928 220.576 231.316C224.465 228.283 229.053 224.867 232.073 220.957C246.213 202.644 234.41 185.878 234 166L235 166L246 203L247 203C246.999 196.34 249.589 180.031 244 176L244 180L241 177C246.537 172.956 239.095 160.6 235 157L235 156L240 153L240 152C215.506 151.914 239.574 129.057 239.63 118C239.712 102.215 229.116 96.2868 217.019 106.299C212.982 109.64 211.955 114.72 208 118C204.25 102.251 205.56 86.2472 189 78C189.589 72.6429 190.71 60.8781 187.131 56.4043C183.756 52.1861 175.063 50.3315 170 49.5803C157.07 47.6614 146.455 50.6824 134 52.7407C125.866 54.0849 120.11 53.4088 113.04 58.7855C100.582 68.2604 100.407 88.0314 103 102z"/>
<path style="fill:#965658; stroke:none;" d="M111 61C109.31 73.4309 108.099 95.308 128 92C130.482 104.095 126.778 114.962 125 127C121.749 127.134 120.948 127.898 120 131L117 131L117 128L105 123L105 127L97 120L102 120L103 115L77 114.791L32 113.039L0 116L0 117L4 117L4 118L0 118L0 141C0.00119056 143.645 -0.739863 148.075 1.6034 149.976C8.02779 155.189 19.6645 151.403 24 160L35 158L39 166L42 165L51 178C41.9791 152.945 27.6977 139.747 8 123L34.9105 129.302L53 138L53 145L54 145L54 138C64.6581 136.81 75.3595 140.029 86 139.741C94.8113 139.502 105.346 134.186 113 130C114.102 134.311 114.322 141.632 119 143L122 151C127.633 147.867 140.285 146.941 145.985 150.059C150.438 152.495 153.242 157.442 158 159L153 174L160 172L168 193C175.641 192.816 191.628 187.122 194.167 178.996C195.914 173.407 192.488 165.135 193 159L203 159C205.154 154.269 208.097 144.501 213 143L215 136C233.788 146.217 247.955 110.993 227 105L230 101L229 100C224.131 103.204 217.933 106.466 214.649 111.429C212.926 114.033 212.496 120.22 208.054 119.288C203.825 118.4 203.446 105.737 202.425 102C201.108 97.1776 201.376 91.3915 198.146 87.3256C194.568 82.8224 188.336 81.4874 185.819 75.9846C183.324 70.5269 187.706 63.986 184.958 59.2276C182.4 54.7995 171.718 52.4722 167 51.6158C148.386 48.237 128.028 55.2753 111 61z"/>
<path style="fill:#78332f; stroke:none;" d="M288 52L289 53L288 52z"/>
<path style="fill:#341f22; stroke:none;" d="M299 55L299 56L302 56L299 55z"/>
<path style="fill:#78332f; stroke:none;" d="M8 58L12 60L8 58z"/>
<path style="fill:#341f22; stroke:none;" d="M78.3333 58.6667L78.6667 59.3333L78.3333 58.6667M301 58L304 60L301 58z"/>
<path style="fill:#78332f; stroke:none;" d="M237 61L237 64C243.416 64 250.669 63.0481 256.981 64.2284C260.508 64.8877 262.464 68.6002 266.054 68.6643C269.074 68.7183 275.689 66.1032 275.079 62.1921C274.491 58.4304 268.419 59.7699 266 60.1667C256.681 61.6947 246.536 61 237 61z"/>
<path style="fill:#965658; stroke:none;" d="M265 61C265.583 68.2907 271.198 65.8406 274 61L265 61M290.603 61.1212C287.571 63.1366 289.339 69.9249 288.701 73C287.878 76.9729 284.304 81.6141 287.858 85.3966C289.998 87.6739 294.195 86.9987 297 87C304.071 87.0032 322.785 90.2318 328.397 85.821C332.3 82.754 330.191 65.5402 326.682 62.9884C319.622 57.8542 307.858 62.499 300 61.9059C297.392 61.709 292.983 59.5391 290.603 61.1212z"/>
<path style="fill:#78332f; stroke:none;" d="M334 62L337 60L334 62M407 61L407 63C415.708 65.574 428.135 63.6459 437 62C429.308 58.771 414.97 58.6441 407 61M55 61L55 62L60 62L55 61z"/>
<path style="fill:#965658; stroke:none;" d="M82 61L83 62L82 61z"/>
<path style="fill:#78332f; stroke:none;" d="M234 61L235 62L234 61z"/>
<path style="fill:#9b8b96; stroke:none;" d="M291 63L290 77L320 74L324 83L320 84C330.678 92.0376 330.27 70.5622 326.93 65.564C325.053 62.7554 319.921 63.0388 317 63.0039C308.26 62.8993 299.708 63.1797 291 63z"/>
<path style="fill:#c9a6ad; stroke:none;" d="M300 67L301 68L300 67z"/>
<path style="fill:#965658; stroke:none;" d="M86.3333 71.6667L86.6667 72.3333L86.3333 71.6667M105 74L105 77L106 77L105 74z"/>
<path style="fill:#c9a6ad; stroke:none;" d="M327 80C328.849 72.0923 319.627 77.0491 327 80z"/>
<path style="fill:#78332f; stroke:none;" d="M363 74L362 80L363 80L365 74L363 74M294 77C294.633 84.9078 313.142 80.4633 320 81C313.792 75.0011 302.098 77.0009 294 77M55.3333 78.6667L55.6667 79.3333L55.3333 78.6667z"/>
<path style="fill:#9b8b96; stroke:none;" d="M288 78C288.156 82.6831 289.217 84.4495 294 85L288 78z"/>
<path style="fill:#341f22; stroke:none;" d="M296 78L296 81L297 81L296 78z"/>
<path style="fill:#78332f; stroke:none;" d="M78 83L77.4437 88.0201C76.5509 97.6542 87.6411 89.4909 78 83z"/>
<path style="fill:#9b8b96; stroke:none;" d="M297 84L297 85L311 85C306.924 82.2155 301.589 82.6436 297 84z"/>
<path style="fill:#78332f; stroke:none;" d="M360 86L360 89L364 88L360 86M165 112L163 109L163 108L180 102C175.964 87.6299 158.45 87.9833 147 89.5455C143.455 90.0292 137.178 87.9473 135.329 92.2292C133.618 96.1913 137.744 101.229 140.167 103.91C147.238 111.734 154.516 116.424 165 112M241 90L241 91L259 91C255.092 87.1236 246.095 88.5098 241 90M72 90L71 93L72 90z"/>
<path style="fill:#341f22; stroke:none;" d="M167 103L167 102L150 98L158 93C154.344 90.8101 138.876 88.7162 139.451 96.0548C140.385 107.956 159.802 105.276 167 103z"/>
<path style="fill:#965658; stroke:none;" d="M126 94L127 95L126 94M154 96L154 97L170 99L170 96L154 96z"/>
<path style="fill:#78332f; stroke:none;" d="M94 97L92 105C95.6255 103.155 97.7991 99.9483 94 97z"/>
<path style="fill:#965658; stroke:none;" d="M230 102L233 104L230 102z"/>
<path style="fill:#78332f; stroke:none;" d="M105 111L118 106L118 104C112.348 102.916 106.071 104.754 105 111M55 108L56 109L55 108M358 110L356 126L359 126L358 110M220 113L229 125C228.697 119.105 227.115 112.003 220 113z"/>
<path style="fill:#9b8b96; stroke:none;" d="M22 115L22 116L46 116L22 115M55 115L55 116L71 116L55 115M0 117L0 118L4 118L0 117M18 117L18 118L21 118L18 117z"/>
<path style="fill:#78332f; stroke:none;" d="M377 118C376.506 121.137 376.964 122 380 123L377 118M92 119L92 120L96 120L92 119z"/>
<path style="fill:#341f22; stroke:none;" d="M117 122L121 119L117 122z"/>
<path style="fill:#9b8b96; stroke:none;" d="M235 119L236 120L235 119z"/>
<path style="fill:#78332f; stroke:none;" d="M3 123L4 124L3 123M123 131L125 147L135 144L132 143L132 142C139.131 143.899 147.771 140.94 151 134L123 131z"/>
<path style="fill:#9b8b96; stroke:none;" d="M229.667 131.333L230.333 131.667L229.667 131.333z"/>
<path style="fill:#341f22; stroke:none;" d="M137 135L145 135C142.6 131.684 139.401 131.6 137 135M126 134C127.133 137.981 128.795 139.82 133 140C131.85 136.034 130.061 134.633 126 134z"/>
<path style="fill:#78332f; stroke:none;" d="M354 135L354 144C358.564 142.48 357.507 139.126 357 135L354 135z"/>
<path style="fill:#965658; stroke:none;" d="M98 143L104 143L104 140L98 143z"/>
<path style="fill:#78332f; stroke:none;" d="M179 143L179 145L183 146L183 142L179 143z"/>
<path style="fill:#965658; stroke:none;" d="M215 144L212 165L213 165L214 160L215 160L215 166L216 166L217 161L220 161L220 178C228.234 185.172 229.113 199.119 233 209L229 210L232 215L233 209C239.982 206.579 238.735 198.777 237.51 193C235.066 181.469 227.499 165.259 232 154L226 142L215 144z"/>
<path style="fill:#78332f; stroke:none;" d="M303 143L303 144L308 144L308 145C304.813 144.903 299.55 143.091 299 147C295.355 146.105 291.442 144.647 289 148C295.727 148.308 301.78 150.787 307 155L270 145.528L256 147L256 148L270 148L268 151C278.025 149.139 290.878 149.693 298 158L249 149L249 148L254 148L254 147L236 146L236 147L275 156L275 158L271 158C275.119 165.05 281.749 159.177 288 160.279C299.233 162.26 306.556 172.173 317 175L317 176L314 177L314 178C325.774 181.054 338.75 181.375 349.957 185.224C360.692 188.911 363.924 196.587 376 190C375.688 195.699 379.501 206.525 387 202L388 202L391 207L386 208L386 209C395.77 210.909 403.896 203.763 407 218C400.977 215.163 397.88 213.362 391 215L391 217L405 226L404 223L405 223L410 225L409 228C415.037 229.914 421.04 230.099 423 237L430 237L431 227L441 239L442 239C441.103 222.406 421.352 217.216 410.17 208.406C390.615 192.998 375.073 169.775 353.576 157.008C344.445 151.587 330.278 150.378 320 148L320 149L329 152L329 153L310 147L310 146L314 146L303 143M376 169C383.831 164.888 381.381 150.441 380 143C370.384 144.6 374.009 162.28 376 169M144.667 144.333L145.333 144.667L144.667 144.333M278 144L278 145L288 147C285.471 143.493 282.06 144.003 278 144z"/>
<path style="fill:#965658; stroke:none;" d="M302 144L302 145L308 145L302 144M297.667 146.333L298.333 146.667L297.667 146.333M310 146L310 147C316.398 149.522 321.877 154.366 329 153L310 146z"/>
<path style="fill:#78332f; stroke:none;" d="M315 146L315 147L319 148L319 147L315 146z"/>
<path style="fill:#965658; stroke:none;" d="M377 147L377 158L378 158C379.843 153.643 380.571 150.501 377 147M249 148L249 149L298 158C292.915 149.041 276.834 148.897 268 151L270 148L249 148M300 148L300 149L303 149L300 148z"/>
<path style="fill:#341f22; stroke:none;" d="M306 148L306 149L311 149L306 148M129 152C129.289 156.202 129.33 159.36 131.599 163.09C133.983 167.008 137.577 172.536 142.039 174.254C148.696 176.817 155.291 168.262 154.759 162C153.74 149.997 137.207 148.537 129 152M312.667 150.333L313.333 150.667L312.667 150.333z"/>
<path style="fill:#965658; stroke:none;" d="M331 153C334.477 163.21 350.922 160.738 343 172L364 176C363.013 172.935 362.802 167.943 361.133 165.375C355.561 156.802 340.382 153.026 331 153M318 154C318.729 157.403 320.806 156.987 324 157L324 156L318 154z"/>
<path style="fill:#78332f; stroke:none;" d="M246 156L247 157L246 156z"/>
<path style="fill:#341f22; stroke:none;" d="M281 156L281 157L287 157L281 156z"/>
<path style="fill:#78332f; stroke:none;" d="M198 157L198 158L201 158L198 157z"/>
<path style="fill:#341f22; stroke:none;" d="M305 158L305 160L315 159L305 158M320 158L320 159L325 159L320 158z"/>
<path style="fill:#965658; stroke:none;" d="M328 158L336 162L328 158z"/>
<path style="fill:#341f22; stroke:none;" d="M123 161L129 167L128 160L123 161z"/>
<path style="fill:#965658; stroke:none;" d="M206 160L207 167C209.86 164.082 209.581 161.999 206 160M299 160L299 162L303 162L303 160L299 160z"/>
<path style="fill:#341f22; stroke:none;" d="M47 162L48 163L47 162z"/>
<path style="fill:#965658; stroke:none;" d="M338 165L338 168L339 168L338 165z"/>
<path style="fill:#341f22; stroke:none;" d="M49 166L49 169L50 169L49 166z"/>
<path style="fill:#965658; stroke:none;" d="M311 166C313.326 169.273 318.227 171.788 321 168L311 166M202 168L200 175L204 176L202 168z"/>
<path style="fill:#341f22; stroke:none;" d="M51 169L51 172L52 172L51 169z"/>
<path style="fill:#965658; stroke:none;" d="M132 169L135 173L132 169z"/>
<path style="fill:#78332f; stroke:none;" d="M285 169L284 170L287 172L285 169z"/>
<path style="fill:#341f22; stroke:none;" d="M53 173C53.5337 191.455 64.7459 208.76 62 228L63 229L83 211C80.3609 205.299 73.546 194.124 67 193L63 177C56.8059 180.804 57.2844 177.486 53 173M321 175L321 176L324 176L321 175z"/>
<path style="fill:#965658; stroke:none;" d="M370 175L370 177L372 175L370 175M136 177L137 178L136 177M144 179L143 180L143 181L143 182L146 179L144 179M373 179C373.817 181.413 379.038 191.157 382.343 188.252C386.746 184.382 375.396 179.616 373 179M53 184L53 188L54 188L53 184z"/>
<path style="fill:#78332f; stroke:none;" d="M302 185L302 186L308 187L302 185M135 187L136 188L135 187M331 192L348 192L348 190C341.72 186.482 336.043 186.396 331 192M127 191L128 198C133.206 196.536 130.792 192.686 127 191z"/>
<path style="fill:#965658; stroke:none;" d="M156 201C157.684 201.396 159.279 201.822 161.025 201.819C174.566 201.8 161.809 185.218 156 201M105 196L110 195L105 196z"/>
<path style="fill:#78332f; stroke:none;" d="M250 194L251 195L250 194z"/>
<path style="fill:#965658; stroke:none;" d="M390 194L396 199L390 194z"/>
<path style="fill:#341f22; stroke:none;" d="M97 195L96 197L98 197L97 195z"/>
<path style="fill:#78332f; stroke:none;" d="M367 195L367 196L370 196L367 195z"/>
<path style="fill:#965658; stroke:none;" d="M143 196L142 201C144.874 201.301 147.97 204.561 150.685 204.08C153.645 203.556 152.721 199.112 151.257 197.603C149.238 195.523 145.625 196.009 143 196z"/>
<path style="fill:#341f22; stroke:none;" d="M90 202L91 203L90 202z"/>
<path style="fill:#965658; stroke:none;" d="M97 202L98 203L97 202M401 204L405 207L405 206L401 204z"/>
<path style="fill:#78332f; stroke:none;" d="M437 204L437 205L442 205L437 204M116 206L115 211L119 207L118 206L116 206M242 206L242 209L243 209L242 206M140 210L144 214L140 210z"/>
<path style="fill:#965658; stroke:none;" d="M410 210L411 211L410 210M414 213L418 220L411 218C412.194 221.687 414.29 222.404 418 223L422 220L414 213z"/>
<path style="fill:#78332f; stroke:none;" d="M147 217C144.878 229.801 160.707 235.992 171 236L171 235L147 217z"/>
<path style="fill:#965658; stroke:none;" d="M424 220L424 222L426 222L424 220M420 222L421 226L422 226L420 222M429 223L429 224L434 226L429 223z"/>
<path style="fill:#78332f; stroke:none;" d="M35 228L38 228L37 226L35 228M0 232C0 245.84 -3.36864 264.669 0.433642 277.961C2.43919 284.972 10.756 287.586 15.8295 291.719C21.3626 296.227 23.5396 304.652 30.0147 307.972C34.3967 310.219 41.1979 309 46 309L38 303L37 306L35 306C35.016 302.836 37.815 291.664 31 298L30 298L9.66049 258L0 232z"/>
<path style="fill:#965658; stroke:none;" d="M62 233L59 236L64 236L62 233z"/>
<path style="fill:#78332f; stroke:none;" d="M430 238L434 243L430 238z"/>
<path style="fill:#341f22; stroke:none;" d="M67 241L68 242L67 241z"/>
<path style="fill:#78332f; stroke:none;" d="M422 241L423 242L422 241z"/>
<path style="fill:#965658; stroke:none;" d="M1.33333 243.667L1.66667 244.333L1.33333 243.667z"/>
<path style="fill:#341f22; stroke:none;" d="M1 251C1.09611 259.708 2.28556 282.855 12 286L1 251z"/>
<path style="fill:#78332f; stroke:none;" d="M95 309L113 309L113 308C109.663 306.514 105.09 305.649 102.333 303.182C99.1968 300.376 101.586 296.19 102.839 293C107.913 280.081 119.603 280.606 127.985 272.467C132.845 267.748 137.188 253.478 145.981 254.983C155.742 256.654 145.852 267.865 147.785 272.772C149.37 276.795 155.421 276.77 157.914 280.264C160.769 284.265 165.942 290.479 167.525 295.004C169.193 299.769 168.54 305.888 173 309C172.899 296.913 163.084 273.902 150 272L153 253C137.75 250.554 136.125 260.732 126.787 269.624C122.181 274.01 115.956 274.88 111.039 278.509C101.543 285.518 97.5293 297.811 95 309z"/>
<path style="fill:#965658; stroke:none;" d="M5 252L5 256L6 256L5 252M118 309L103 297C116.731 298.036 105.616 291.087 112.124 284.054C116.565 279.255 122.111 280.425 126.981 276.924C131.913 273.379 133.857 267.021 139 264L137 269L143 276L138 274L141 276C138.199 279.968 131.722 286.151 137 290L138 286L142 286L139 292C141.366 291.945 155.879 290.685 154.539 287.17C153.376 284.12 145.731 284.65 143 284C147.351 279.846 154.963 279.214 157.397 286.016C159.536 291.995 157 302.484 157 309L165 309L165 305L166 305L171 309C168.649 297.609 165.039 288.586 157.914 279.475C155.442 276.313 150.086 276.468 148.284 272.772C146.016 268.12 156.332 255.664 145.981 254.528C136.737 253.513 132.973 266.429 127.985 271.671C123.321 276.571 116.166 276.814 111.001 281.213C96.9833 293.15 98.2546 307.732 118 309z"/>
<path style="fill:#78332f; stroke:none;" d="M96 260L93 267C84.8184 264.426 81.2591 253.271 78 269C85.2033 271.468 93.1318 279.545 97 286C101.578 281.516 97.9359 278.415 98.9776 273.184C99.8806 268.651 106.713 266.179 102.987 260.545C99.7843 255.702 89.9237 255.98 96 260z"/>
<path style="fill:#965658; stroke:none;" d="M7 257L8 265L9 265L10 260L7 257z"/>
<path style="fill:#78332f; stroke:none;" d="M118 260L119 261L118 260M121 260L122 261L121 260z"/>
<path style="fill:#9b8b96; stroke:none;" d="M140 262L141 263L140 262M136 264C133.645 269.384 129.688 275.431 124.17 278.042C118.919 280.528 114.47 279.475 110.449 285.018C107.192 289.508 112.286 291.961 110.67 295.632C109.609 298.04 105.017 297.063 103 297C104.641 301.521 110.013 302.92 113.961 305.191C125.987 312.107 143.266 309 157 309C157 302.237 159.829 291.235 157.397 285.045C155.008 278.967 146.331 279.332 143 284C145.91 284.86 152.138 284.198 153.963 286.974C155.98 290.043 141.169 291.889 139 292L142 286L138 286L137 290C132.96 285.293 138.719 280.639 141 276L138 276L138 274L143 276L137 269L139 264L136 264z"/>
<path style="fill:#78332f; stroke:none;" d="M165 264L165 267L166 267L165 264z"/>
<path style="fill:#965658; stroke:none;" d="M11 265L13 270L11 265z"/>
<path style="fill:#78332f; stroke:none;" d="M105 271L108 275L108 274L105 271M36 274L37 275L36 274M356 274C351.417 284.978 353 297.293 353 309L354 309L357 277L375 290L375 289L356 274z"/>
<path style="fill:#965658; stroke:none;" d="M15 276L15 278L17 278L17 276L15 276M357 277C352.285 286.794 354 298.28 354 309L388 309C386.014 295.494 379.541 294.353 370.039 286.61C365.509 282.919 362.784 278.848 357 277z"/>
<path style="fill:#78332f; stroke:none;" d="M105 278L105 281L106 281L105 278z"/>
<path style="fill:#965658; stroke:none;" d="M0 279C1.32063 287.381 10.3607 288.889 15.6991 294.213C20.9183 299.418 21.6752 308.357 30 309C21.3613 296.364 11.6861 288.594 0 279z"/>
<path style="fill:#78332f; stroke:none;" d="M39 281C35.5608 283.231 34.2311 284.878 35 289L39 281z"/>
<path style="fill:#9b8b96; stroke:none;" d="M0 283C0.841308 288.169 4.37768 289.422 9 291L9 293L0 293L0 309L25 309C19.5919 296.385 11.786 289.714 0 283z"/>
<path style="fill:#78332f; stroke:none;" d="M55 283L55 286L65 285L55 283z"/>
<path style="fill:#c9a6ad; stroke:none;" d="M0 287L0 293L9 293L9 291L0 287z"/>
<path style="fill:#78332f; stroke:none;" d="M376.667 290.333L377.333 290.667L376.667 290.333M378 291L379 292L378 291M379 292L379 293L382 293L379 292z"/>
<path style="fill:#341f22; stroke:none;" d="M20 293L21 294L20 293z"/>
<path style="fill:#c9a6ad; stroke:none;" d="M118 293L119 295L120 295L121 293L118 293z"/>
<path style="fill:#965658; stroke:none;" d="M135 293L136 296L137 296L138 293L135 293z"/>
<path style="fill:#78332f; stroke:none;" d="M382 293L391 309L391 303L392 303L396 309C393.299 301.623 388.998 296.547 382 293z"/>
<path style="fill:#965658; stroke:none;" d="M391 303L391 309L393 309L391 303z"/>
<path style="fill:#9b8b96; stroke:none;" d="M165 305L167 309L165 305z"/>
<path style="fill:#c9a6ad; stroke:none;" d="M16 308L16 309L22 309L16 308z"/>
</svg>
